<?xml version="1.0" encoding="UTF-8"?>
<svg version="1.1" baseProfile="tiny" xmlns="http://www.w3.org/2000/svg" width="420" height="420">
<rect shape-rendering="optimizeSpeed"  x="22" y="22" width="15" height="15" fill="black" />
<rect shape-rendering="optimizeSpeed"  x="37" y="22" width="15" height="15" fill="black" />
<rect shape-rendering="optimizeSpeed"  x="52" y="22" width="15" height="15" fill="black" />
<rect shape-rendering="optimizeSpeed"  x="67" y="22" width="15" height="15" fill="black" />
<rect shape-rendering="optimizeSpeed"  x="82" y="22" width="15" height="15" fill="black" />
<rect shape-rendering="optimizeSpeed"  x="97" y="22" width="15" height="15" fill="black" />
<rect shape-rendering="optimizeSpeed"  x="112" y="22" width="15" height="15" fill="black" />
<rect shape-rendering="optimizeSpeed"  x="142" y="22" width="15" height="15" fill="black" />
<rect shape-rendering="optimizeSpeed"  x="187" y="22" width="15" height="15" fill="black" />
<rect shape-rendering="optimizeSpeed"  x="202" y="22" width="15" height="15" fill="black" />
<rect shape-rendering="optimizeSpeed"  x="232" y="22" width="15" height="15" fill="black" />
<rect shape-rendering="optimizeSpeed"  x="262" y="22" width="15" height="15" fill="black" />
<rect shape-rendering="optimizeSpeed"  x="292" y="22" width="15" height="15" fill="black" />
<rect shape-rendering="optimizeSpeed"  x="307" y="22" width="15" height="15" fill="black" />
<rect shape-rendering="optimizeSpeed"  x="322" y="22" width="15" height="15" fill="black" />
<rect shape-rendering="optimizeSpeed"  x="337" y="22" width="15" height="15" fill="black" />
<rect shape-rendering="optimizeSpeed"  x="352" y="22" width="15" height="15" fill="black" />
<rect shape-rendering="optimizeSpeed"  x="367" y="22" width="15" height="15" fill="black" />
<rect shape-rendering="optimizeSpeed"  x="382" y="22" width="15" height="15" fill="black" />
<rect shape-rendering="optimizeSpeed"  x="22" y="37" width="15" height="15" fill="black" />
<rect shape-rendering="optimizeSpeed"  x="112" y="37" width="15" height="15" fill="black" />
<rect shape-rendering="optimizeSpeed"  x="157" y="37" width="15" height="15" fill="black" />
<rect shape-rendering="optimizeSpeed"  x="172" y="37" width="15" height="15" fill="black" />
<rect shape-rendering="optimizeSpeed"  x="187" y="37" width="15" height="15" fill="black" />
<rect shape-rendering="optimizeSpeed"  x="202" y="37" width="15" height="15" fill="black" />
<rect shape-rendering="optimizeSpeed"  x="232" y="37" width="15" height="15" fill="black" />
<rect shape-rendering="optimizeSpeed"  x="262" y="37" width="15" height="15" fill="black" />
<rect shape-rendering="optimizeSpeed"  x="292" y="37" width="15" height="15" fill="black" />
<rect shape-rendering="optimizeSpeed"  x="382" y="37" width="15" height="15" fill="black" />
<rect shape-rendering="optimizeSpeed"  x="22" y="52" width="15" height="15" fill="black" />
<rect shape-rendering="optimizeSpeed"  x="52" y="52" width="15" height="15" fill="black" />
<rect shape-rendering="optimizeSpeed"  x="67" y="52" width="15" height="15" fill="black" />
<rect shape-rendering="optimizeSpeed"  x="82" y="52" width="15" height="15" fill="black" />
<rect shape-rendering="optimizeSpeed"  x="112" y="52" width="15" height="15" fill="black" />
<rect shape-rendering="optimizeSpeed"  x="142" y="52" width="15" height="15" fill="black" />
<rect shape-rendering="optimizeSpeed"  x="187" y="52" width="15" height="15" fill="black" />
<rect shape-rendering="optimizeSpeed"  x="202" y="52" width="15" height="15" fill="black" />
<rect shape-rendering="optimizeSpeed"  x="217" y="52" width="15" height="15" fill="black" />
<rect shape-rendering="optimizeSpeed"  x="262" y="52" width="15" height="15" fill="black" />
<rect shape-rendering="optimizeSpeed"  x="292" y="52" width="15" height="15" fill="black" />
<rect shape-rendering="optimizeSpeed"  x="322" y="52" width="15" height="15" fill="black" />
<rect shape-rendering="optimizeSpeed"  x="337" y="52" width="15" height="15" fill="black" />
<rect shape-rendering="optimizeSpeed"  x="352" y="52" width="15" height="15" fill="black" />
<rect shape-rendering="optimizeSpeed"  x="382" y="52" width="15" height="15" fill="black" />
<rect shape-rendering="optimizeSpeed"  x="22" y="67" width="15" height="15" fill="black" />
<rect shape-rendering="optimizeSpeed"  x="52" y="67" width="15" height="15" fill="black" />
<rect shape-rendering="optimizeSpeed"  x="67" y="67" width="15" height="15" fill="black" />
<rect shape-rendering="optimizeSpeed"  x="82" y="67" width="15" height="15" fill="black" />
<rect shape-rendering="optimizeSpeed"  x="112" y="67" width="15" height="15" fill="black" />
<rect shape-rendering="optimizeSpeed"  x="142" y="67" width="15" height="15" fill="black" />
<rect shape-rendering="optimizeSpeed"  x="157" y="67" width="15" height="15" fill="black" />
<rect shape-rendering="optimizeSpeed"  x="187" y="67" width="15" height="15" fill="black" />
<rect shape-rendering="optimizeSpeed"  x="202" y="67" width="15" height="15" fill="black" />
<rect shape-rendering="optimizeSpeed"  x="217" y="67" width="15" height="15" fill="black" />
<rect shape-rendering="optimizeSpeed"  x="232" y="67" width="15" height="15" fill="black" />
<rect shape-rendering="optimizeSpeed"  x="292" y="67" width="15" height="15" fill="black" />
<rect shape-rendering="optimizeSpeed"  x="322" y="67" width="15" height="15" fill="black" />
<rect shape-rendering="optimizeSpeed"  x="337" y="67" width="15" height="15" fill="black" />
<rect shape-rendering="optimizeSpeed"  x="352" y="67" width="15" height="15" fill="black" />
<rect shape-rendering="optimizeSpeed"  x="382" y="67" width="15" height="15" fill="black" />
<rect shape-rendering="optimizeSpeed"  x="22" y="82" width="15" height="15" fill="black" />
<rect shape-rendering="optimizeSpeed"  x="52" y="82" width="15" height="15" fill="black" />
<rect shape-rendering="optimizeSpeed"  x="67" y="82" width="15" height="15" fill="black" />
<rect shape-rendering="optimizeSpeed"  x="82" y="82" width="15" height="15" fill="black" />
<rect shape-rendering="optimizeSpeed"  x="112" y="82" width="15" height="15" fill="black" />
<rect shape-rendering="optimizeSpeed"  x="142" y="82" width="15" height="15" fill="black" />
<rect shape-rendering="optimizeSpeed"  x="157" y="82" width="15" height="15" fill="black" />
<rect shape-rendering="optimizeSpeed"  x="202" y="82" width="15" height="15" fill="black" />
<rect shape-rendering="optimizeSpeed"  x="247" y="82" width="15" height="15" fill="black" />
<rect shape-rendering="optimizeSpeed"  x="262" y="82" width="15" height="15" fill="black" />
<rect shape-rendering="optimizeSpeed"  x="292" y="82" width="15" height="15" fill="black" />
<rect shape-rendering="optimizeSpeed"  x="322" y="82" width="15" height="15" fill="black" />
<rect shape-rendering="optimizeSpeed"  x="337" y="82" width="15" height="15" fill="black" />
<rect shape-rendering="optimizeSpeed"  x="352" y="82" width="15" height="15" fill="black" />
<rect shape-rendering="optimizeSpeed"  x="382" y="82" width="15" height="15" fill="black" />
<rect shape-rendering="optimizeSpeed"  x="22" y="97" width="15" height="15" fill="black" />
<rect shape-rendering="optimizeSpeed"  x="112" y="97" width="15" height="15" fill="black" />
<rect shape-rendering="optimizeSpeed"  x="157" y="97" width="15" height="15" fill="black" />
<rect shape-rendering="optimizeSpeed"  x="202" y="97" width="15" height="15" fill="black" />
<rect shape-rendering="optimizeSpeed"  x="217" y="97" width="15" height="15" fill="black" />
<rect shape-rendering="optimizeSpeed"  x="232" y="97" width="15" height="15" fill="black" />
<rect shape-rendering="optimizeSpeed"  x="262" y="97" width="15" height="15" fill="black" />
<rect shape-rendering="optimizeSpeed"  x="292" y="97" width="15" height="15" fill="black" />
<rect shape-rendering="optimizeSpeed"  x="382" y="97" width="15" height="15" fill="black" />
<rect shape-rendering="optimizeSpeed"  x="22" y="112" width="15" height="15" fill="black" />
<rect shape-rendering="optimizeSpeed"  x="37" y="112" width="15" height="15" fill="black" />
<rect shape-rendering="optimizeSpeed"  x="52" y="112" width="15" height="15" fill="black" />
<rect shape-rendering="optimizeSpeed"  x="67" y="112" width="15" height="15" fill="black" />
<rect shape-rendering="optimizeSpeed"  x="82" y="112" width="15" height="15" fill="black" />
<rect shape-rendering="optimizeSpeed"  x="97" y="112" width="15" height="15" fill="black" />
<rect shape-rendering="optimizeSpeed"  x="112" y="112" width="15" height="15" fill="black" />
<rect shape-rendering="optimizeSpeed"  x="142" y="112" width="15" height="15" fill="black" />
<rect shape-rendering="optimizeSpeed"  x="172" y="112" width="15" height="15" fill="black" />
<rect shape-rendering="optimizeSpeed"  x="202" y="112" width="15" height="15" fill="black" />
<rect shape-rendering="optimizeSpeed"  x="232" y="112" width="15" height="15" fill="black" />
<rect shape-rendering="optimizeSpeed"  x="262" y="112" width="15" height="15" fill="black" />
<rect shape-rendering="optimizeSpeed"  x="292" y="112" width="15" height="15" fill="black" />
<rect shape-rendering="optimizeSpeed"  x="307" y="112" width="15" height="15" fill="black" />
<rect shape-rendering="optimizeSpeed"  x="322" y="112" width="15" height="15" fill="black" />
<rect shape-rendering="optimizeSpeed"  x="337" y="112" width="15" height="15" fill="black" />
<rect shape-rendering="optimizeSpeed"  x="352" y="112" width="15" height="15" fill="black" />
<rect shape-rendering="optimizeSpeed"  x="367" y="112" width="15" height="15" fill="black" />
<rect shape-rendering="optimizeSpeed"  x="382" y="112" width="15" height="15" fill="black" />
<rect shape-rendering="optimizeSpeed"  x="157" y="127" width="15" height="15" fill="black" />
<rect shape-rendering="optimizeSpeed"  x="187" y="127" width="15" height="15" fill="black" />
<rect shape-rendering="optimizeSpeed"  x="232" y="127" width="15" height="15" fill="black" />
<rect shape-rendering="optimizeSpeed"  x="247" y="127" width="15" height="15" fill="black" />
<rect shape-rendering="optimizeSpeed"  x="22" y="142" width="15" height="15" fill="black" />
<rect shape-rendering="optimizeSpeed"  x="37" y="142" width="15" height="15" fill="black" />
<rect shape-rendering="optimizeSpeed"  x="52" y="142" width="15" height="15" fill="black" />
<rect shape-rendering="optimizeSpeed"  x="67" y="142" width="15" height="15" fill="black" />
<rect shape-rendering="optimizeSpeed"  x="112" y="142" width="15" height="15" fill="black" />
<rect shape-rendering="optimizeSpeed"  x="142" y="142" width="15" height="15" fill="black" />
<rect shape-rendering="optimizeSpeed"  x="187" y="142" width="15" height="15" fill="black" />
<rect shape-rendering="optimizeSpeed"  x="277" y="142" width="15" height="15" fill="black" />
<rect shape-rendering="optimizeSpeed"  x="322" y="142" width="15" height="15" fill="black" />
<rect shape-rendering="optimizeSpeed"  x="337" y="142" width="15" height="15" fill="black" />
<rect shape-rendering="optimizeSpeed"  x="352" y="142" width="15" height="15" fill="black" />
<rect shape-rendering="optimizeSpeed"  x="382" y="142" width="15" height="15" fill="black" />
<rect shape-rendering="optimizeSpeed"  x="22" y="157" width="15" height="15" fill="black" />
<rect shape-rendering="optimizeSpeed"  x="37" y="157" width="15" height="15" fill="black" />
<rect shape-rendering="optimizeSpeed"  x="52" y="157" width="15" height="15" fill="black" />
<rect shape-rendering="optimizeSpeed"  x="67" y="157" width="15" height="15" fill="black" />
<rect shape-rendering="optimizeSpeed"  x="97" y="157" width="15" height="15" fill="black" />
<rect shape-rendering="optimizeSpeed"  x="127" y="157" width="15" height="15" fill="black" />
<rect shape-rendering="optimizeSpeed"  x="157" y="157" width="15" height="15" fill="black" />
<rect shape-rendering="optimizeSpeed"  x="187" y="157" width="15" height="15" fill="black" />
<rect shape-rendering="optimizeSpeed"  x="217" y="157" width="15" height="15" fill="black" />
<rect shape-rendering="optimizeSpeed"  x="262" y="157" width="15" height="15" fill="black" />
<rect shape-rendering="optimizeSpeed"  x="307" y="157" width="15" height="15" fill="black" />
<rect shape-rendering="optimizeSpeed"  x="367" y="157" width="15" height="15" fill="black" />
<rect shape-rendering="optimizeSpeed"  x="22" y="172" width="15" height="15" fill="black" />
<rect shape-rendering="optimizeSpeed"  x="67" y="172" width="15" height="15" fill="black" />
<rect shape-rendering="optimizeSpeed"  x="82" y="172" width="15" height="15" fill="black" />
<rect shape-rendering="optimizeSpeed"  x="97" y="172" width="15" height="15" fill="black" />
<rect shape-rendering="optimizeSpeed"  x="112" y="172" width="15" height="15" fill="black" />
<rect shape-rendering="optimizeSpeed"  x="187" y="172" width="15" height="15" fill="black" />
<rect shape-rendering="optimizeSpeed"  x="217" y="172" width="15" height="15" fill="black" />
<rect shape-rendering="optimizeSpeed"  x="262" y="172" width="15" height="15" fill="black" />
<rect shape-rendering="optimizeSpeed"  x="292" y="172" width="15" height="15" fill="black" />
<rect shape-rendering="optimizeSpeed"  x="307" y="172" width="15" height="15" fill="black" />
<rect shape-rendering="optimizeSpeed"  x="22" y="187" width="15" height="15" fill="black" />
<rect shape-rendering="optimizeSpeed"  x="82" y="187" width="15" height="15" fill="black" />
<rect shape-rendering="optimizeSpeed"  x="127" y="187" width="15" height="15" fill="black" />
<rect shape-rendering="optimizeSpeed"  x="142" y="187" width="15" height="15" fill="black" />
<rect shape-rendering="optimizeSpeed"  x="187" y="187" width="15" height="15" fill="black" />
<rect shape-rendering="optimizeSpeed"  x="202" y="187" width="15" height="15" fill="black" />
<rect shape-rendering="optimizeSpeed"  x="217" y="187" width="15" height="15" fill="black" />
<rect shape-rendering="optimizeSpeed"  x="247" y="187" width="15" height="15" fill="black" />
<rect shape-rendering="optimizeSpeed"  x="262" y="187" width="15" height="15" fill="black" />
<rect shape-rendering="optimizeSpeed"  x="277" y="187" width="15" height="15" fill="black" />
<rect shape-rendering="optimizeSpeed"  x="292" y="187" width="15" height="15" fill="black" />
<rect shape-rendering="optimizeSpeed"  x="307" y="187" width="15" height="15" fill="black" />
<rect shape-rendering="optimizeSpeed"  x="322" y="187" width="15" height="15" fill="black" />
<rect shape-rendering="optimizeSpeed"  x="337" y="187" width="15" height="15" fill="black" />
<rect shape-rendering="optimizeSpeed"  x="352" y="187" width="15" height="15" fill="black" />
<rect shape-rendering="optimizeSpeed"  x="22" y="202" width="15" height="15" fill="black" />
<rect shape-rendering="optimizeSpeed"  x="37" y="202" width="15" height="15" fill="black" />
<rect shape-rendering="optimizeSpeed"  x="67" y="202" width="15" height="15" fill="black" />
<rect shape-rendering="optimizeSpeed"  x="82" y="202" width="15" height="15" fill="black" />
<rect shape-rendering="optimizeSpeed"  x="97" y="202" width="15" height="15" fill="black" />
<rect shape-rendering="optimizeSpeed"  x="112" y="202" width="15" height="15" fill="black" />
<rect shape-rendering="optimizeSpeed"  x="127" y="202" width="15" height="15" fill="black" />
<rect shape-rendering="optimizeSpeed"  x="142" y="202" width="15" height="15" fill="black" />
<rect shape-rendering="optimizeSpeed"  x="157" y="202" width="15" height="15" fill="black" />
<rect shape-rendering="optimizeSpeed"  x="187" y="202" width="15" height="15" fill="black" />
<rect shape-rendering="optimizeSpeed"  x="202" y="202" width="15" height="15" fill="black" />
<rect shape-rendering="optimizeSpeed"  x="217" y="202" width="15" height="15" fill="black" />
<rect shape-rendering="optimizeSpeed"  x="232" y="202" width="15" height="15" fill="black" />
<rect shape-rendering="optimizeSpeed"  x="247" y="202" width="15" height="15" fill="black" />
<rect shape-rendering="optimizeSpeed"  x="277" y="202" width="15" height="15" fill="black" />
<rect shape-rendering="optimizeSpeed"  x="292" y="202" width="15" height="15" fill="black" />
<rect shape-rendering="optimizeSpeed"  x="322" y="202" width="15" height="15" fill="black" />
<rect shape-rendering="optimizeSpeed"  x="352" y="202" width="15" height="15" fill="black" />
<rect shape-rendering="optimizeSpeed"  x="367" y="202" width="15" height="15" fill="black" />
<rect shape-rendering="optimizeSpeed"  x="382" y="202" width="15" height="15" fill="black" />
<rect shape-rendering="optimizeSpeed"  x="82" y="217" width="15" height="15" fill="black" />
<rect shape-rendering="optimizeSpeed"  x="142" y="217" width="15" height="15" fill="black" />
<rect shape-rendering="optimizeSpeed"  x="172" y="217" width="15" height="15" fill="black" />
<rect shape-rendering="optimizeSpeed"  x="232" y="217" width="15" height="15" fill="black" />
<rect shape-rendering="optimizeSpeed"  x="247" y="217" width="15" height="15" fill="black" />
<rect shape-rendering="optimizeSpeed"  x="262" y="217" width="15" height="15" fill="black" />
<rect shape-rendering="optimizeSpeed"  x="277" y="217" width="15" height="15" fill="black" />
<rect shape-rendering="optimizeSpeed"  x="292" y="217" width="15" height="15" fill="black" />
<rect shape-rendering="optimizeSpeed"  x="307" y="217" width="15" height="15" fill="black" />
<rect shape-rendering="optimizeSpeed"  x="322" y="217" width="15" height="15" fill="black" />
<rect shape-rendering="optimizeSpeed"  x="382" y="217" width="15" height="15" fill="black" />
<rect shape-rendering="optimizeSpeed"  x="37" y="232" width="15" height="15" fill="black" />
<rect shape-rendering="optimizeSpeed"  x="67" y="232" width="15" height="15" fill="black" />
<rect shape-rendering="optimizeSpeed"  x="82" y="232" width="15" height="15" fill="black" />
<rect shape-rendering="optimizeSpeed"  x="112" y="232" width="15" height="15" fill="black" />
<rect shape-rendering="optimizeSpeed"  x="127" y="232" width="15" height="15" fill="black" />
<rect shape-rendering="optimizeSpeed"  x="157" y="232" width="15" height="15" fill="black" />
<rect shape-rendering="optimizeSpeed"  x="172" y="232" width="15" height="15" fill="black" />
<rect shape-rendering="optimizeSpeed"  x="232" y="232" width="15" height="15" fill="black" />
<rect shape-rendering="optimizeSpeed"  x="277" y="232" width="15" height="15" fill="black" />
<rect shape-rendering="optimizeSpeed"  x="292" y="232" width="15" height="15" fill="black" />
<rect shape-rendering="optimizeSpeed"  x="322" y="232" width="15" height="15" fill="black" />
<rect shape-rendering="optimizeSpeed"  x="352" y="232" width="15" height="15" fill="black" />
<rect shape-rendering="optimizeSpeed"  x="367" y="232" width="15" height="15" fill="black" />
<rect shape-rendering="optimizeSpeed"  x="22" y="247" width="15" height="15" fill="black" />
<rect shape-rendering="optimizeSpeed"  x="67" y="247" width="15" height="15" fill="black" />
<rect shape-rendering="optimizeSpeed"  x="82" y="247" width="15" height="15" fill="black" />
<rect shape-rendering="optimizeSpeed"  x="97" y="247" width="15" height="15" fill="black" />
<rect shape-rendering="optimizeSpeed"  x="157" y="247" width="15" height="15" fill="black" />
<rect shape-rendering="optimizeSpeed"  x="172" y="247" width="15" height="15" fill="black" />
<rect shape-rendering="optimizeSpeed"  x="187" y="247" width="15" height="15" fill="black" />
<rect shape-rendering="optimizeSpeed"  x="202" y="247" width="15" height="15" fill="black" />
<rect shape-rendering="optimizeSpeed"  x="232" y="247" width="15" height="15" fill="black" />
<rect shape-rendering="optimizeSpeed"  x="292" y="247" width="15" height="15" fill="black" />
<rect shape-rendering="optimizeSpeed"  x="307" y="247" width="15" height="15" fill="black" />
<rect shape-rendering="optimizeSpeed"  x="322" y="247" width="15" height="15" fill="black" />
<rect shape-rendering="optimizeSpeed"  x="382" y="247" width="15" height="15" fill="black" />
<rect shape-rendering="optimizeSpeed"  x="67" y="262" width="15" height="15" fill="black" />
<rect shape-rendering="optimizeSpeed"  x="82" y="262" width="15" height="15" fill="black" />
<rect shape-rendering="optimizeSpeed"  x="112" y="262" width="15" height="15" fill="black" />
<rect shape-rendering="optimizeSpeed"  x="142" y="262" width="15" height="15" fill="black" />
<rect shape-rendering="optimizeSpeed"  x="157" y="262" width="15" height="15" fill="black" />
<rect shape-rendering="optimizeSpeed"  x="187" y="262" width="15" height="15" fill="black" />
<rect shape-rendering="optimizeSpeed"  x="217" y="262" width="15" height="15" fill="black" />
<rect shape-rendering="optimizeSpeed"  x="262" y="262" width="15" height="15" fill="black" />
<rect shape-rendering="optimizeSpeed"  x="277" y="262" width="15" height="15" fill="black" />
<rect shape-rendering="optimizeSpeed"  x="292" y="262" width="15" height="15" fill="black" />
<rect shape-rendering="optimizeSpeed"  x="307" y="262" width="15" height="15" fill="black" />
<rect shape-rendering="optimizeSpeed"  x="322" y="262" width="15" height="15" fill="black" />
<rect shape-rendering="optimizeSpeed"  x="337" y="262" width="15" height="15" fill="black" />
<rect shape-rendering="optimizeSpeed"  x="352" y="262" width="15" height="15" fill="black" />
<rect shape-rendering="optimizeSpeed"  x="367" y="262" width="15" height="15" fill="black" />
<rect shape-rendering="optimizeSpeed"  x="382" y="262" width="15" height="15" fill="black" />
<rect shape-rendering="optimizeSpeed"  x="142" y="277" width="15" height="15" fill="black" />
<rect shape-rendering="optimizeSpeed"  x="157" y="277" width="15" height="15" fill="black" />
<rect shape-rendering="optimizeSpeed"  x="172" y="277" width="15" height="15" fill="black" />
<rect shape-rendering="optimizeSpeed"  x="187" y="277" width="15" height="15" fill="black" />
<rect shape-rendering="optimizeSpeed"  x="202" y="277" width="15" height="15" fill="black" />
<rect shape-rendering="optimizeSpeed"  x="247" y="277" width="15" height="15" fill="black" />
<rect shape-rendering="optimizeSpeed"  x="262" y="277" width="15" height="15" fill="black" />
<rect shape-rendering="optimizeSpeed"  x="322" y="277" width="15" height="15" fill="black" />
<rect shape-rendering="optimizeSpeed"  x="352" y="277" width="15" height="15" fill="black" />
<rect shape-rendering="optimizeSpeed"  x="382" y="277" width="15" height="15" fill="black" />
<rect shape-rendering="optimizeSpeed"  x="22" y="292" width="15" height="15" fill="black" />
<rect shape-rendering="optimizeSpeed"  x="37" y="292" width="15" height="15" fill="black" />
<rect shape-rendering="optimizeSpeed"  x="52" y="292" width="15" height="15" fill="black" />
<rect shape-rendering="optimizeSpeed"  x="67" y="292" width="15" height="15" fill="black" />
<rect shape-rendering="optimizeSpeed"  x="82" y="292" width="15" height="15" fill="black" />
<rect shape-rendering="optimizeSpeed"  x="97" y="292" width="15" height="15" fill="black" />
<rect shape-rendering="optimizeSpeed"  x="112" y="292" width="15" height="15" fill="black" />
<rect shape-rendering="optimizeSpeed"  x="157" y="292" width="15" height="15" fill="black" />
<rect shape-rendering="optimizeSpeed"  x="262" y="292" width="15" height="15" fill="black" />
<rect shape-rendering="optimizeSpeed"  x="292" y="292" width="15" height="15" fill="black" />
<rect shape-rendering="optimizeSpeed"  x="322" y="292" width="15" height="15" fill="black" />
<rect shape-rendering="optimizeSpeed"  x="352" y="292" width="15" height="15" fill="black" />
<rect shape-rendering="optimizeSpeed"  x="367" y="292" width="15" height="15" fill="black" />
<rect shape-rendering="optimizeSpeed"  x="382" y="292" width="15" height="15" fill="black" />
<rect shape-rendering="optimizeSpeed"  x="22" y="307" width="15" height="15" fill="black" />
<rect shape-rendering="optimizeSpeed"  x="112" y="307" width="15" height="15" fill="black" />
<rect shape-rendering="optimizeSpeed"  x="157" y="307" width="15" height="15" fill="black" />
<rect shape-rendering="optimizeSpeed"  x="172" y="307" width="15" height="15" fill="black" />
<rect shape-rendering="optimizeSpeed"  x="187" y="307" width="15" height="15" fill="black" />
<rect shape-rendering="optimizeSpeed"  x="202" y="307" width="15" height="15" fill="black" />
<rect shape-rendering="optimizeSpeed"  x="247" y="307" width="15" height="15" fill="black" />
<rect shape-rendering="optimizeSpeed"  x="262" y="307" width="15" height="15" fill="black" />
<rect shape-rendering="optimizeSpeed"  x="322" y="307" width="15" height="15" fill="black" />
<rect shape-rendering="optimizeSpeed"  x="367" y="307" width="15" height="15" fill="black" />
<rect shape-rendering="optimizeSpeed"  x="382" y="307" width="15" height="15" fill="black" />
<rect shape-rendering="optimizeSpeed"  x="22" y="322" width="15" height="15" fill="black" />
<rect shape-rendering="optimizeSpeed"  x="52" y="322" width="15" height="15" fill="black" />
<rect shape-rendering="optimizeSpeed"  x="67" y="322" width="15" height="15" fill="black" />
<rect shape-rendering="optimizeSpeed"  x="82" y="322" width="15" height="15" fill="black" />
<rect shape-rendering="optimizeSpeed"  x="112" y="322" width="15" height="15" fill="black" />
<rect shape-rendering="optimizeSpeed"  x="157" y="322" width="15" height="15" fill="black" />
<rect shape-rendering="optimizeSpeed"  x="172" y="322" width="15" height="15" fill="black" />
<rect shape-rendering="optimizeSpeed"  x="202" y="322" width="15" height="15" fill="black" />
<rect shape-rendering="optimizeSpeed"  x="232" y="322" width="15" height="15" fill="black" />
<rect shape-rendering="optimizeSpeed"  x="262" y="322" width="15" height="15" fill="black" />
<rect shape-rendering="optimizeSpeed"  x="277" y="322" width="15" height="15" fill="black" />
<rect shape-rendering="optimizeSpeed"  x="292" y="322" width="15" height="15" fill="black" />
<rect shape-rendering="optimizeSpeed"  x="307" y="322" width="15" height="15" fill="black" />
<rect shape-rendering="optimizeSpeed"  x="322" y="322" width="15" height="15" fill="black" />
<rect shape-rendering="optimizeSpeed"  x="337" y="322" width="15" height="15" fill="black" />
<rect shape-rendering="optimizeSpeed"  x="367" y="322" width="15" height="15" fill="black" />
<rect shape-rendering="optimizeSpeed"  x="382" y="322" width="15" height="15" fill="black" />
<rect shape-rendering="optimizeSpeed"  x="22" y="337" width="15" height="15" fill="black" />
<rect shape-rendering="optimizeSpeed"  x="52" y="337" width="15" height="15" fill="black" />
<rect shape-rendering="optimizeSpeed"  x="67" y="337" width="15" height="15" fill="black" />
<rect shape-rendering="optimizeSpeed"  x="82" y="337" width="15" height="15" fill="black" />
<rect shape-rendering="optimizeSpeed"  x="112" y="337" width="15" height="15" fill="black" />
<rect shape-rendering="optimizeSpeed"  x="142" y="337" width="15" height="15" fill="black" />
<rect shape-rendering="optimizeSpeed"  x="187" y="337" width="15" height="15" fill="black" />
<rect shape-rendering="optimizeSpeed"  x="232" y="337" width="15" height="15" fill="black" />
<rect shape-rendering="optimizeSpeed"  x="247" y="337" width="15" height="15" fill="black" />
<rect shape-rendering="optimizeSpeed"  x="262" y="337" width="15" height="15" fill="black" />
<rect shape-rendering="optimizeSpeed"  x="277" y="337" width="15" height="15" fill="black" />
<rect shape-rendering="optimizeSpeed"  x="292" y="337" width="15" height="15" fill="black" />
<rect shape-rendering="optimizeSpeed"  x="322" y="337" width="15" height="15" fill="black" />
<rect shape-rendering="optimizeSpeed"  x="337" y="337" width="15" height="15" fill="black" />
<rect shape-rendering="optimizeSpeed"  x="352" y="337" width="15" height="15" fill="black" />
<rect shape-rendering="optimizeSpeed"  x="367" y="337" width="15" height="15" fill="black" />
<rect shape-rendering="optimizeSpeed"  x="382" y="337" width="15" height="15" fill="black" />
<rect shape-rendering="optimizeSpeed"  x="22" y="352" width="15" height="15" fill="black" />
<rect shape-rendering="optimizeSpeed"  x="52" y="352" width="15" height="15" fill="black" />
<rect shape-rendering="optimizeSpeed"  x="67" y="352" width="15" height="15" fill="black" />
<rect shape-rendering="optimizeSpeed"  x="82" y="352" width="15" height="15" fill="black" />
<rect shape-rendering="optimizeSpeed"  x="112" y="352" width="15" height="15" fill="black" />
<rect shape-rendering="optimizeSpeed"  x="142" y="352" width="15" height="15" fill="black" />
<rect shape-rendering="optimizeSpeed"  x="157" y="352" width="15" height="15" fill="black" />
<rect shape-rendering="optimizeSpeed"  x="172" y="352" width="15" height="15" fill="black" />
<rect shape-rendering="optimizeSpeed"  x="187" y="352" width="15" height="15" fill="black" />
<rect shape-rendering="optimizeSpeed"  x="247" y="352" width="15" height="15" fill="black" />
<rect shape-rendering="optimizeSpeed"  x="262" y="352" width="15" height="15" fill="black" />
<rect shape-rendering="optimizeSpeed"  x="277" y="352" width="15" height="15" fill="black" />
<rect shape-rendering="optimizeSpeed"  x="292" y="352" width="15" height="15" fill="black" />
<rect shape-rendering="optimizeSpeed"  x="322" y="352" width="15" height="15" fill="black" />
<rect shape-rendering="optimizeSpeed"  x="352" y="352" width="15" height="15" fill="black" />
<rect shape-rendering="optimizeSpeed"  x="367" y="352" width="15" height="15" fill="black" />
<rect shape-rendering="optimizeSpeed"  x="22" y="367" width="15" height="15" fill="black" />
<rect shape-rendering="optimizeSpeed"  x="112" y="367" width="15" height="15" fill="black" />
<rect shape-rendering="optimizeSpeed"  x="142" y="367" width="15" height="15" fill="black" />
<rect shape-rendering="optimizeSpeed"  x="157" y="367" width="15" height="15" fill="black" />
<rect shape-rendering="optimizeSpeed"  x="217" y="367" width="15" height="15" fill="black" />
<rect shape-rendering="optimizeSpeed"  x="292" y="367" width="15" height="15" fill="black" />
<rect shape-rendering="optimizeSpeed"  x="322" y="367" width="15" height="15" fill="black" />
<rect shape-rendering="optimizeSpeed"  x="352" y="367" width="15" height="15" fill="black" />
<rect shape-rendering="optimizeSpeed"  x="22" y="382" width="15" height="15" fill="black" />
<rect shape-rendering="optimizeSpeed"  x="37" y="382" width="15" height="15" fill="black" />
<rect shape-rendering="optimizeSpeed"  x="52" y="382" width="15" height="15" fill="black" />
<rect shape-rendering="optimizeSpeed"  x="67" y="382" width="15" height="15" fill="black" />
<rect shape-rendering="optimizeSpeed"  x="82" y="382" width="15" height="15" fill="black" />
<rect shape-rendering="optimizeSpeed"  x="97" y="382" width="15" height="15" fill="black" />
<rect shape-rendering="optimizeSpeed"  x="112" y="382" width="15" height="15" fill="black" />
<rect shape-rendering="optimizeSpeed"  x="142" y="382" width="15" height="15" fill="black" />
<rect shape-rendering="optimizeSpeed"  x="187" y="382" width="15" height="15" fill="black" />
<rect shape-rendering="optimizeSpeed"  x="202" y="382" width="15" height="15" fill="black" />
<rect shape-rendering="optimizeSpeed"  x="217" y="382" width="15" height="15" fill="black" />
<rect shape-rendering="optimizeSpeed"  x="232" y="382" width="15" height="15" fill="black" />
<rect shape-rendering="optimizeSpeed"  x="277" y="382" width="15" height="15" fill="black" />
<rect shape-rendering="optimizeSpeed"  x="292" y="382" width="15" height="15" fill="black" />
<rect shape-rendering="optimizeSpeed"  x="307" y="382" width="15" height="15" fill="black" />
<rect shape-rendering="optimizeSpeed"  x="322" y="382" width="15" height="15" fill="black" />
<rect shape-rendering="optimizeSpeed"  x="337" y="382" width="15" height="15" fill="black" />
<rect shape-rendering="optimizeSpeed"  x="352" y="382" width="15" height="15" fill="black" />
<rect shape-rendering="optimizeSpeed"  x="367" y="382" width="15" height="15" fill="black" />
<rect shape-rendering="optimizeSpeed"  x="382" y="382" width="15" height="15" fill="black" /></svg>
